<svg width="60" height="60" viewBox="0 0 60 60" fill="none" xmlns="http://www.w3.org/2000/svg">
<mask id="mask0_8332_8227" style="mask-type:luminance" maskUnits="userSpaceOnUse" x="0" y="0" width="60" height="60">
<path d="M0 0H60V60H0V0Z" fill="white"/>
</mask>
<g mask="url(#mask0_8332_8227)">
<path d="M8.745 33.0089C14.925 34.9964 20.9415 33.5699 26.5425 29.6234C30.0675 27.1424 33.1005 24.0614 36.1125 20.9759C39.1275 17.8904 42.5595 14.9309 46.7535 13.9049C49.8438 13.1666 53.0952 13.5344 55.9425 14.9444C52.8229 9.55696 48.1038 5.27404 42.4399 2.68997C36.7761 0.105898 30.4483 -0.651193 24.3347 0.523748C18.2211 1.69869 12.6247 4.7474 8.32223 9.24686C4.0197 13.7463 1.22434 19.4734 0.324005 25.6334C2.87401 31.1609 8.745 33.0089 8.745 33.0089Z" fill="url(#paint0_linear_8332_8227)"/>
<path d="M8.46299 35.2531C14.688 37.5601 20.8875 36.3691 26.784 32.5981C30.498 30.2221 33.729 27.2131 36.939 24.2011C40.152 21.1891 43.7985 18.3211 48.1215 17.4601C51.5243 16.7995 55.0512 17.438 58.0065 19.2496C57.4365 17.7596 56.75 16.3261 55.947 14.9491C53.0997 13.5391 49.8483 13.1713 46.758 13.9096C42.5595 14.9356 39.1305 17.8951 36.114 20.9806C33.0975 24.0661 30.069 27.1456 26.5425 29.6281C20.94 33.5701 14.934 34.9951 8.74349 33.0136C8.74349 33.0136 2.87249 31.1656 0.323991 25.6141C0.247991 26.1181 0.186991 26.6321 0.140991 27.1561C2.44649 33.0571 8.46299 35.2531 8.46299 35.2531Z" fill="url(#paint1_linear_8332_8227)"/>
<path d="M50.028 35.1511C46.68 35.9251 43.74 37.8406 40.9785 39.9151C38.217 41.9896 35.6295 44.2681 32.631 45.9451C27.2593 48.9208 20.9775 49.8065 14.9925 48.4321C9.88045 47.2107 5.28485 44.4058 1.86148 40.4176C4.0917 46.4733 8.21604 51.6478 13.6217 55.1724C19.0274 58.6971 25.426 60.3837 31.8667 59.9817C38.3074 59.5797 44.4466 57.1106 49.3721 52.9412C54.2976 48.7718 57.7465 43.1246 59.2065 36.8386C56.712 34.8511 53.1675 34.4251 50.028 35.1511Z" fill="url(#paint2_linear_8332_8227)"/>
<path d="M58.008 19.2493C55.0529 17.4371 51.526 16.7981 48.123 17.4583C43.7985 18.3208 40.1655 21.1873 36.9495 24.1813C33.7335 27.1753 30.4995 30.2023 26.7945 32.5783C20.898 36.3493 14.703 37.5403 8.47349 35.2333C8.47349 35.2333 2.45699 33.0373 0.149989 27.1363C0.0499889 28.0863 -1.10513e-05 29.0363 -1.10513e-05 29.9863C-0.0065261 33.5465 0.623904 37.0791 1.86149 40.4173C5.28486 44.4054 9.88046 47.2103 14.9925 48.4318C20.9775 49.8073 27.2595 48.9223 32.631 45.9448C35.6295 44.2678 38.2365 41.9893 40.9785 39.9148C43.7205 37.8403 46.6815 35.9248 50.028 35.1508C53.166 34.4248 56.712 34.8508 59.217 36.8383C60.591 30.9883 60.1725 24.8593 58.017 19.2478L58.008 19.2493Z" fill="url(#paint3_linear_8332_8227)"/>
<path style="mix-blend-mode:screen" opacity="0.45" d="M12.7004 22.7021C16.1879 22.1801 19.0259 20.3411 21.2459 17.5946C22.5599 15.8797 23.7233 14.0544 24.7229 12.1391C25.7579 10.2776 27.0254 8.37562 28.9979 7.08412L29.0429 7.05562C30.6929 5.98762 30.4934 4.01812 28.6949 3.73762C25.1204 3.22316 21.4733 3.69838 18.1499 5.11162C11.7374 7.77112 7.51045 13.0961 7.02745 18.3821C6.77545 21.1001 9.27145 23.0696 12.5324 22.7351L12.7004 22.7021Z" fill="url(#paint4_linear_8332_8227)"/>
</g>
<defs>
<linearGradient id="paint0_linear_8332_8227" x1="0.0780048" y1="32.3159" x2="52.7025" y2="-1.66355" gradientUnits="userSpaceOnUse">
<stop stop-color="#FFFF00"/>
<stop offset="0.88" stop-color="#F03F77"/>
</linearGradient>
<linearGradient id="paint1_linear_8332_8227" x1="4.70999" y1="24.9796" x2="65.8275" y2="24.9796" gradientUnits="userSpaceOnUse">
<stop stop-color="#FFFF00"/>
<stop offset="1" stop-color="#F03F77"/>
</linearGradient>
<linearGradient id="paint2_linear_8332_8227" x1="12.8025" y1="59.5456" x2="45.201" y2="27.1516" gradientUnits="userSpaceOnUse">
<stop stop-color="#8D29C1"/>
<stop offset="1" stop-color="#440059"/>
</linearGradient>
<linearGradient id="paint3_linear_8332_8227" x1="10.746" y1="50.9263" x2="49.452" y2="12.2158" gradientUnits="userSpaceOnUse">
<stop stop-color="#FF483D"/>
<stop offset="1" stop-color="#8D29C1"/>
</linearGradient>
<linearGradient id="paint4_linear_8332_8227" x1="7.66645" y1="23.5616" x2="21.8729" y2="-3.19988" gradientUnits="userSpaceOnUse">
<stop stop-color="#FFFF00"/>
<stop offset="0.88" stop-color="#F03F77"/>
</linearGradient>
</defs>
</svg>
