<svg width="24" height="24" viewBox="0 0 24 24" fill="none" xmlns="http://www.w3.org/2000/svg">
<path d="M18.9308 5.46302C17.6561 4.87812 16.2892 4.44719 14.8599 4.20038C14.8339 4.19561 14.8079 4.20752 14.7945 4.23133C14.6187 4.544 14.4239 4.95192 14.2876 5.27254C12.7503 5.0424 11.221 5.0424 9.71527 5.27254C9.57887 4.94479 9.37707 4.544 9.20048 4.23133C9.18707 4.20831 9.16107 4.19641 9.13504 4.20038C7.70659 4.4464 6.33963 4.87733 5.06411 5.46302C5.05307 5.46778 5.04361 5.47572 5.03732 5.48603C2.44449 9.35967 1.73421 13.1381 2.08265 16.8697C2.08423 16.8879 2.09447 16.9054 2.10867 16.9165C3.81934 18.1728 5.47642 18.9354 7.10273 19.441C7.12876 19.4489 7.15634 19.4394 7.1729 19.4179C7.55761 18.8926 7.90054 18.3387 8.19456 17.7561C8.21192 17.722 8.19535 17.6815 8.15989 17.668C7.61594 17.4617 7.098 17.2101 6.59977 16.9244C6.56037 16.9014 6.55721 16.845 6.59347 16.8181C6.69831 16.7395 6.80318 16.6578 6.9033 16.5752C6.92141 16.5601 6.94665 16.557 6.96794 16.5665C10.2411 18.0609 13.7846 18.0609 17.0191 16.5665C17.0404 16.5562 17.0657 16.5594 17.0846 16.5744C17.1847 16.657 17.2895 16.7395 17.3952 16.8181C17.4314 16.845 17.4291 16.9014 17.3897 16.9244C16.8914 17.2157 16.3735 17.4617 15.8288 17.6672C15.7933 17.6807 15.7775 17.722 15.7949 17.7561C16.0952 18.3378 16.4381 18.8918 16.8157 19.4172C16.8315 19.4394 16.8599 19.4489 16.8859 19.441C18.5201 18.9354 20.1772 18.1728 21.8879 16.9165C21.9028 16.9054 21.9123 16.8887 21.9139 16.8705C22.3309 12.5563 21.2154 8.80891 18.9568 5.48682C18.9513 5.47572 18.9419 5.46778 18.9308 5.46302ZM8.68335 14.5975C7.69792 14.5975 6.88594 13.6928 6.88594 12.5818C6.88594 11.4707 7.68217 10.566 8.68335 10.566C9.69239 10.566 10.4965 11.4786 10.4807 12.5818C10.4807 13.6928 9.68451 14.5975 8.68335 14.5975ZM15.329 14.5975C14.3435 14.5975 13.5316 13.6928 13.5316 12.5818C13.5316 11.4707 14.3278 10.566 15.329 10.566C16.338 10.566 17.1421 11.4786 17.1264 12.5818C17.1264 13.6928 16.338 14.5975 15.329 14.5975Z" fill="white"/>
</svg>
