<svg width="24" height="24" viewBox="0 0 24 24" fill="none" xmlns="http://www.w3.org/2000/svg">
<g opacity="0.3">
<path fill-rule="evenodd" clip-rule="evenodd" d="M9.50004 2.00001L9.35045 1.99999C8.09958 1.99974 7.29169 1.99958 6.59937 2.16579C4.40547 2.6925 2.69253 4.40544 2.16582 6.59934C1.99961 7.29166 1.99977 8.09955 2.00002 9.35042L2.00004 9.50001V13L2.00004 13.0438C2.00003 14.4068 2.00002 15.4908 2.07148 16.3654C2.14465 17.261 2.29772 18.0247 2.654 18.724C3.22924 19.8529 4.14712 20.7708 5.2761 21.346C5.97534 21.7023 6.73902 21.8554 7.63462 21.9286C8.50918 22 9.59317 22 10.9562 22H10.9563H11H14.5L14.6496 22H14.6497C15.9005 22.0003 16.7084 22.0004 17.4007 21.8342C19.5946 21.3075 21.3076 19.5946 21.8343 17.4007C22.0005 16.7084 22.0003 15.9005 22.0001 14.6496V14.6496L22 14.5V14C22 13.4477 21.5523 13 21 13C20.4478 13 20 13.4477 20 14V14.5C20 15.9523 19.9931 16.5024 19.8895 16.9338C19.5384 18.3964 18.3964 19.5383 16.9338 19.8895C16.5025 19.993 15.9523 20 14.5 20H11C9.58341 20 8.58107 19.9992 7.79748 19.9352C7.02556 19.8721 6.55439 19.7527 6.18408 19.564C5.43143 19.1805 4.81951 18.5686 4.43601 17.816C4.24733 17.4457 4.12791 16.9745 4.06484 16.2026C4.00082 15.419 4.00004 14.4166 4.00004 13V9.50001C4.00004 8.04772 4.007 7.49757 4.11056 7.06623C4.4617 5.60363 5.60366 4.46167 7.06626 4.11053C7.4976 4.00697 8.04775 4.00001 9.50004 4.00001H10C10.5523 4.00001 11 3.55229 11 3.00001C11 2.44772 10.5523 2.00001 10 2.00001H9.50004ZM15 2.00001C14.4478 2.00001 14 2.44772 14 3.00001C14 3.55229 14.4478 4.00001 15 4.00001H18.5858L11.2929 11.2929C10.9024 11.6834 10.9024 12.3166 11.2929 12.7071C11.6835 13.0976 12.3166 13.0976 12.7071 12.7071L20 5.41422V9.00001C20 9.55229 20.4478 10 21 10C21.5523 10 22 9.55229 22 9.00001V3.00001C22 2.44772 21.5523 2.00001 21 2.00001H15Z" fill="white"/>
</g>
</svg>
