<svg width="24" height="24" viewBox="0 0 24 24" fill="none" xmlns="http://www.w3.org/2000/svg">
<path fill-rule="evenodd" clip-rule="evenodd" d="M12.0004 2.41663C9.62639 2.41786 7.33025 3.25867 5.52253 4.78873C3.71482 6.31878 2.5134 8.4383 2.1331 10.7683C1.7528 13.0983 2.21841 15.4868 3.4467 17.5068C4.67499 19.5267 6.58584 21.0464 8.83758 21.7941C9.33435 21.8863 9.52147 21.5784 9.52147 21.3166C9.52147 21.0548 9.51153 20.2958 9.50822 19.466C6.72631 20.0669 6.13846 18.292 6.13846 18.292C5.68475 17.1395 5.02901 16.8365 5.02901 16.8365C4.12157 16.2208 5.0969 16.2323 5.0969 16.2323C6.10204 16.3031 6.63027 17.258 6.63027 17.258C7.52115 18.7777 8.97005 18.3381 9.53968 18.0813C9.6291 17.4375 9.88908 16.9995 10.1756 16.7509C7.95333 16.5007 5.61851 15.6478 5.61851 11.8378C5.60473 10.8497 5.97349 9.89417 6.64848 9.16886C6.54582 8.9186 6.20304 7.90765 6.74618 6.53449C6.74618 6.53449 7.58573 6.26776 9.49664 7.55366C11.1357 7.10798 12.865 7.10798 14.5041 7.55366C16.4133 6.26776 17.2512 6.53449 17.2512 6.53449C17.796 7.90436 17.4533 8.9153 17.3506 9.16886C18.0277 9.89429 18.3972 10.8515 18.3822 11.8411C18.3822 15.6593 16.0424 16.5007 13.8169 16.746C14.1746 17.0555 14.4942 17.6598 14.4942 18.5884C14.4942 19.9188 14.4826 20.989 14.4826 21.3166C14.4826 21.5817 14.663 21.8912 15.1698 21.7941C17.4218 21.0463 19.3328 19.5264 20.5611 17.5061C21.7893 15.4858 22.2547 13.0969 21.874 10.7667C21.4932 8.43646 20.2912 6.31692 18.4829 4.78713C16.6746 3.25734 14.3779 2.41708 12.0037 2.41663H12.0004Z" fill="white"/>
<path d="M5.78681 16.6933C5.76528 16.7427 5.6858 16.7576 5.62122 16.723C5.55664 16.6884 5.50862 16.6242 5.5318 16.5731C5.55498 16.5221 5.63281 16.5089 5.69739 16.5435C5.76197 16.5781 5.81164 16.6439 5.78681 16.6933Z" fill="white"/>
<path d="M6.19285 17.1428C6.15856 17.16 6.11933 17.1648 6.08187 17.1563C6.04441 17.1479 6.01106 17.1268 5.98752 17.0967C5.92294 17.0275 5.90969 16.932 5.95937 16.8892C6.00904 16.8464 6.09847 16.8662 6.16305 16.9353C6.22763 17.0045 6.24253 17.1 6.19285 17.1428Z" fill="white"/>
<path d="M6.58673 17.7142C6.52546 17.757 6.42113 17.7142 6.36318 17.6286C6.34715 17.6132 6.33441 17.5948 6.3257 17.5744C6.31699 17.5541 6.3125 17.5322 6.3125 17.51C6.3125 17.4879 6.31699 17.466 6.3257 17.4456C6.33441 17.4253 6.34715 17.4068 6.36318 17.3915C6.42444 17.3503 6.52877 17.3915 6.58673 17.4755C6.64468 17.5594 6.64634 17.6714 6.58673 17.7142Z" fill="white"/>
<path d="M7.12168 18.2674C7.06704 18.3283 6.95609 18.3118 6.86502 18.2295C6.77394 18.1472 6.75241 18.0352 6.80706 17.9759C6.8617 17.9167 6.97265 17.9331 7.06703 18.0138C7.16142 18.0945 7.17964 18.2081 7.12168 18.2674Z" fill="white"/>
<path d="M7.87197 18.5901C7.84714 18.6675 7.73453 18.702 7.62193 18.6691C7.50933 18.6362 7.43481 18.544 7.45634 18.4649C7.47787 18.3859 7.59213 18.3497 7.70638 18.3859C7.82064 18.4221 7.8935 18.5094 7.87197 18.5901Z" fill="white"/>
<path d="M8.68962 18.646C8.68962 18.7267 8.59689 18.7959 8.47767 18.7975C8.35844 18.7991 8.26074 18.7333 8.26074 18.6526C8.26074 18.5719 8.35347 18.5028 8.47269 18.5011C8.59192 18.4995 8.68962 18.5637 8.68962 18.646Z" fill="white"/>
<path d="M9.45166 18.5193C9.46656 18.6 9.38377 18.684 9.26454 18.7037C9.14532 18.7235 9.041 18.6757 9.02609 18.5967C9.01119 18.5177 9.0973 18.432 9.21321 18.4106C9.32912 18.3892 9.43676 18.4386 9.45166 18.5193Z" fill="white"/>
</svg>
