<svg width="16" height="18" viewBox="0 0 16 18" fill="none" xmlns="http://www.w3.org/2000/svg">
<path fill-rule="evenodd" clip-rule="evenodd" d="M7.4954 0C9.9458 0 11.9638 2.018 11.9638 4.4684C11.9638 6.9188 9.9458 8.9368 7.4954 8.9368C4.973 8.9368 3.027 6.9188 3.027 4.4684C3.027 2.018 4.97294 0 7.4954 0ZM10.8108 9.2252C13.4774 9.9459 15.3514 11.3874 15.3514 13.117C15.3514 15.4954 11.964 17.3692 7.7118 17.3692C3.4596 17.3692 0 15.4953 0 13.117C0 11.4593 1.72976 10.018 4.1802 9.3692C5.04504 10.0899 6.1982 10.5223 7.4234 10.5223C8.79278 10.5223 9.9458 10.0178 10.8108 9.22506V9.2252Z" fill="white"/>
</svg>
