<svg width="46" height="46" viewBox="0 0 46 46" fill="none" xmlns="http://www.w3.org/2000/svg">
<g clip-path="url(#clip0_7634_8760)">
<path d="M32.2012 0H13.7988C6.17795 0 0 6.17795 0 13.7988V32.2012C0 39.822 6.17795 46 13.7988 46H32.2012C39.822 46 46 39.822 46 32.2012V13.7988C46 6.17795 39.822 0 32.2012 0Z" fill="url(#paint0_linear_7634_8760)"/>
<path d="M7 9.69104L34.3362 19.8364V27.1637L7 37.3091V9.69104Z" fill="url(#paint1_linear_7634_8760)"/>
<path d="M7 15.3274L34.3362 19.8365V27.1637L7 31.6728V15.3274Z" fill="url(#paint2_linear_7634_8760)"/>
<circle cx="34.3365" cy="23.5" r="3.66361" fill="white"/>
</g>
<defs>
<linearGradient id="paint0_linear_7634_8760" x1="23" y1="0" x2="23" y2="46" gradientUnits="userSpaceOnUse">
<stop stop-color="#16163E"/>
<stop offset="1" stop-color="#05052B"/>
</linearGradient>
<linearGradient id="paint1_linear_7634_8760" x1="10.3818" y1="23.7819" x2="34.618" y2="23.9762" gradientUnits="userSpaceOnUse">
<stop stop-color="#8D29C1" stop-opacity="0"/>
<stop offset="1" stop-color="#8D29C1"/>
</linearGradient>
<linearGradient id="paint2_linear_7634_8760" x1="7" y1="23.7819" x2="34.618" y2="23.7819" gradientUnits="userSpaceOnUse">
<stop stop-color="#F03F79" stop-opacity="0"/>
<stop offset="1" stop-color="#F03F79"/>
</linearGradient>
<clipPath id="clip0_7634_8760">
<rect width="46" height="46" fill="white"/>
</clipPath>
</defs>
</svg>
