<svg width="61" height="60" viewBox="0 0 61 60" fill="none" xmlns="http://www.w3.org/2000/svg">
<g clip-path="url(#clip0_2_1645)">
<path d="M55.9442 45.2331L53.7124 44.066L53.707 44.0552C53.6746 44.0391 53.642 44.0282 53.6149 44.012L53.5825 43.9958C49.612 42.1048 45.582 40.6836 41.514 39.7165V16.1589C41.514 15.3376 40.8695 14.6838 40.0624 14.6838H34.8787H21.8083H16.6245C15.8282 14.6838 15.1728 15.3376 15.1728 16.1589V39.83C11.1265 40.8295 7.10193 42.2668 3.14234 44.1579L1.56609 45.1089L1.32776 49.6691C2.74693 48.1347 4.2311 47.3133 4.2311 47.3133C7.56778 45.6708 11.614 44.066 15.1781 43.1908V56.5743H21.8028V27.5865C21.8028 23.9394 24.8037 20.919 28.3786 20.919C31.959 20.919 34.8679 23.8691 34.8679 27.5108C34.8679 27.5379 34.857 27.5649 34.857 27.5865H34.8679V38.5548C31.8183 38.2036 28.7578 38.0902 25.6974 38.2522L23.1786 41.8993C27.1003 41.5698 30.9191 41.5968 34.689 42.0237C34.727 42.0237 34.7487 42.0237 34.7865 42.0345C34.8136 42.0345 34.8408 42.0345 34.8733 42.0452C35.5287 42.1209 37.9228 42.4235 40.1112 42.9638L34.8733 44.7415V56.5635H41.4925V43.2394C45.062 44.1363 48.5883 45.4493 52.1308 47.1674L53.8153 47.8698C53.8153 47.8698 55.7275 48.8154 56.177 49.7825L55.9442 45.2331Z" fill="url(#paint0_linear_2_1645)"/>
<path fill-rule="evenodd" clip-rule="evenodd" d="M10.4535 5.32363C6.96545 5.32363 4.00616 8.31553 4.00616 12.175V47.7579C4.00616 51.6174 6.96545 54.6093 10.4535 54.6093H46.8446C50.3262 54.6093 53.2874 51.618 53.2919 47.756V35.3897L56.5062 35.4029V47.7597C56.4999 53.2419 52.2498 57.8237 46.8446 57.8237H10.4535C5.04377 57.8237 0.79187 53.2426 0.79187 47.7579V12.175C0.79187 6.69043 5.04377 2.10934 10.4535 2.10934H46.8446C52.2543 2.10934 56.5062 6.69043 56.5062 12.175V32.1093H53.2919V28.8567C54.351 28.3514 55.0826 27.2725 55.0826 26.0232C55.0826 24.7739 54.351 23.695 53.2919 23.1896V12.175C53.2919 8.31553 50.3325 5.32363 46.8446 5.32363H10.4535Z" fill="url(#paint1_linear_2_1645)"/>
<path fill-rule="evenodd" clip-rule="evenodd" d="M52.0227 32.258H59.8172C60.359 32.258 60.7922 31.8258 60.7922 31.2963V20.7602C60.7922 20.2198 60.3535 19.7876 59.8172 19.7876H52.0227C48.5723 19.7876 45.7719 22.5756 45.7719 26.0228C45.7719 29.4646 48.5669 32.258 52.0227 32.258ZM55.083 26.0228C55.083 27.7566 53.674 29.162 51.9359 29.162C50.1979 29.162 48.7888 27.7566 48.7888 26.0228C48.7888 24.289 50.1979 22.8836 51.9359 22.8836C53.674 22.8836 55.083 24.289 55.083 26.0228Z" fill="url(#paint2_linear_2_1645)"/>
</g>
<defs>
<linearGradient id="paint0_linear_2_1645" x1="1.31985" y1="35.6318" x2="56.1842" y2="35.6318" gradientUnits="userSpaceOnUse">
<stop stop-color="#8D29C1"/>
<stop offset="0.0858" stop-color="#8D29C1"/>
<stop offset="0.2383" stop-color="#942BBB"/>
<stop offset="0.4667" stop-color="#A92FAC"/>
<stop offset="0.7413" stop-color="#CA3793"/>
<stop offset="1" stop-color="#F03F77"/>
</linearGradient>
<linearGradient id="paint1_linear_2_1645" x1="0.755847" y1="30.0068" x2="56.5392" y2="29.9347" gradientUnits="userSpaceOnUse">
<stop stop-color="#8D29C1"/>
<stop offset="0.0858" stop-color="#8D29C1"/>
<stop offset="0.2383" stop-color="#942BBB"/>
<stop offset="0.4667" stop-color="#A92FAC"/>
<stop offset="0.7413" stop-color="#CA3793"/>
<stop offset="1" stop-color="#F03F77"/>
</linearGradient>
<linearGradient id="paint2_linear_2_1645" x1="53.7969" y1="10.2986" x2="53.2599" y2="29.4972" gradientUnits="userSpaceOnUse">
<stop stop-color="#8D29C1"/>
<stop offset="0.0858" stop-color="#8D29C1"/>
<stop offset="0.2383" stop-color="#942BBB"/>
<stop offset="0.4667" stop-color="#A92FAC"/>
<stop offset="0.7413" stop-color="#CA3793"/>
<stop offset="1" stop-color="#F03F77"/>
</linearGradient>
<clipPath id="clip0_2_1645">
<rect width="60" height="60" fill="white" transform="translate(0.791992)"/>
</clipPath>
</defs>
</svg>
