<svg width="56" height="56" viewBox="0 0 56 56" fill="none" xmlns="http://www.w3.org/2000/svg">
<path d="M28 2.79999C14.1023 2.79999 2.80005 14.0999 2.80005 27.9948C2.80005 37.9818 8.64248 46.6351 17.0907 50.7084V50.7291H17.1321C20.4204 52.3109 24.112 53.2 28 53.2C41.8978 53.2 53.2 41.9 53.2 28.0052C53.2 14.0999 41.8978 2.79999 28 2.79999ZM28 4.86768C40.75 4.86768 51.1319 15.2475 51.1319 27.9948C51.1319 31.6546 50.2737 35.1284 48.7536 38.2092C45.4239 36.5964 42.0426 35.3972 38.6302 34.5804V15.2888C38.6302 14.6168 38.1028 14.0792 37.441 14.0792H33.2014H22.5195H18.2799C17.6284 14.0792 17.0907 14.6168 17.0907 15.2888V34.6735C13.7817 35.4902 10.4934 36.6688 7.25684 38.2196C5.72643 35.1284 4.86817 31.665 4.86817 27.9948C4.86817 15.2475 15.2501 4.86768 28 4.86768ZM8.59077 40.5457C11.331 39.1914 14.1747 38.1472 17.1011 37.4235V48.3823C13.637 46.5317 10.7106 43.823 8.59077 40.5457ZM22.5195 50.4603V24.6452C22.5195 21.6573 24.9703 19.1864 27.8966 19.1864C30.823 19.1864 33.2014 21.6056 33.2014 24.5831C33.2014 24.6038 33.191 24.6245 33.191 24.6452H33.2014V33.6293C30.7093 33.3398 28.2069 33.2468 25.7044 33.3812L23.6467 36.369C26.8522 36.1002 29.9751 36.1208 33.0566 36.4724C33.0876 36.4724 33.1083 36.4724 33.1393 36.4827C33.16 36.4827 33.1807 36.4827 33.2117 36.493C33.7494 36.5551 35.7038 36.8032 37.4927 37.2477L33.2117 38.7055V50.543C31.5365 50.9255 29.7993 51.1426 28.0207 51.1426C26.1077 51.122 24.2774 50.8842 22.5195 50.4603ZM38.6198 48.527V37.4752C41.5359 38.2092 44.4209 39.2844 47.3163 40.6905C45.1447 43.9884 42.146 46.6971 38.6198 48.527Z" fill="url(#paint0_linear_2_1616)"/>
<defs>
<linearGradient id="paint0_linear_2_1616" x1="27.9996" y1="54.2904" x2="27.9996" y2="-4.9277" gradientUnits="userSpaceOnUse">
<stop offset="0.0858" stop-color="#8D29C1"/>
<stop offset="0.2383" stop-color="#942BBB"/>
<stop offset="0.4667" stop-color="#A92FAC"/>
<stop offset="0.7413" stop-color="#CA3793"/>
<stop offset="1" stop-color="#F03F77"/>
</linearGradient>
</defs>
</svg>
