<svg width="34" height="34" viewBox="0 0 34 34" fill="none" xmlns="http://www.w3.org/2000/svg">
<path d="M17 34C26.4209 34 34 26.4209 34 17C34 7.57911 26.4209 0 17 0C7.57911 0 0 7.57911 0 17C0 26.4209 7.57911 34 17 34Z" fill="black"/>
<path d="M27.5211 21.9033L24.1885 25.2685C24.116 25.3416 24.0283 25.3998 23.931 25.4396C23.8336 25.4795 23.7285 25.5001 23.6224 25.5H7.82439C7.74901 25.5 7.67527 25.4793 7.61223 25.4404C7.5492 25.4014 7.49962 25.346 7.46957 25.2809C7.43952 25.2158 7.43032 25.1439 7.4431 25.0739C7.45589 25.004 7.4901 24.9391 7.54152 24.8872L10.8766 21.522C10.9489 21.4491 11.0362 21.3909 11.1333 21.3511C11.2304 21.3113 11.3352 21.2907 11.441 21.2905H27.2381C27.3135 21.2905 27.3872 21.3112 27.4503 21.3501C27.5132 21.3891 27.5628 21.4444 27.593 21.5096C27.623 21.5747 27.6322 21.6466 27.6194 21.7165C27.6066 21.7865 27.5724 21.8514 27.5211 21.9033ZM24.1885 15.1267C24.116 15.0536 24.0283 14.9954 23.931 14.9555C23.8336 14.9157 23.7285 14.8952 23.6224 14.8953H7.82439C7.74901 14.8953 7.67527 14.916 7.61223 14.9549C7.5492 14.9938 7.49962 15.0492 7.46957 15.1143C7.43952 15.1794 7.43032 15.2513 7.4431 15.3214C7.45589 15.3913 7.4901 15.4562 7.54152 15.508L10.8766 18.8733C10.9489 18.9462 11.0362 19.0043 11.1333 19.0441C11.2304 19.084 11.3352 19.1046 11.441 19.1047H27.2381C27.3135 19.1047 27.3872 19.084 27.4503 19.0451C27.5132 19.0062 27.5628 18.9507 27.593 18.8857C27.623 18.8206 27.6322 18.7487 27.6194 18.6786C27.6066 18.6087 27.5724 18.5438 27.5211 18.492L24.1885 15.1267ZM7.82439 12.7095H23.6224C23.7285 12.7095 23.8336 12.689 23.931 12.6492C24.0283 12.6094 24.116 12.5511 24.1885 12.478L27.5211 9.11281C27.5724 9.06092 27.6066 8.99601 27.6194 8.92606C27.6322 8.85612 27.623 8.78418 27.593 8.71909C27.5628 8.65399 27.5132 8.59858 27.4503 8.55966C27.3872 8.52074 27.3135 8.5 27.2381 8.5H11.441C11.3352 8.50017 11.2304 8.5208 11.1333 8.56063C11.0362 8.60046 10.9489 8.65862 10.8766 8.73153L7.54238 12.0967C7.49101 12.1485 7.45682 12.2134 7.44401 12.2832C7.43119 12.3532 7.44032 12.425 7.47025 12.4901C7.50019 12.5551 7.54965 12.6105 7.61256 12.6495C7.67546 12.6885 7.74908 12.7093 7.82439 12.7095Z" fill="url(#paint0_linear_44_1137)"/>
<defs>
<linearGradient id="paint0_linear_44_1137" x1="9.14156" y1="25.9051" x2="24.6011" y2="7.39614" gradientUnits="userSpaceOnUse">
<stop offset="0.08" stop-color="#9945FF"/>
<stop offset="0.3" stop-color="#8752F3"/>
<stop offset="0.5" stop-color="#5497D5"/>
<stop offset="0.6" stop-color="#43B4CA"/>
<stop offset="0.72" stop-color="#28E0B9"/>
<stop offset="0.97" stop-color="#19FB9B"/>
</linearGradient>
</defs>
</svg>
